<mxfile host="app.diagrams.net" modified="2021-01-20T05:15:18.623Z" agent="5.0 (Windows NT 10.0; Win64; x64) AppleWebKit/537.36 (KHTML, like Gecko) Chrome/87.0.4280.141 Safari/537.36" etag="2iqdXsZEh0bWIBMPWeAd" version="14.2.3" type="github">
  <diagram id="C5RBs43oDa-KdzZeNtuy" name="Page-1">
    <mxGraphModel dx="4512" dy="1089" grid="1" gridSize="10" guides="1" tooltips="1" connect="1" arrows="1" fold="1" page="1" pageScale="1" pageWidth="827" pageHeight="1169" math="0" shadow="0">
      <root>
        <mxCell id="WIyWlLk6GJQsqaUBKTNV-0" />
        <mxCell id="WIyWlLk6GJQsqaUBKTNV-1" parent="WIyWlLk6GJQsqaUBKTNV-0" />
        <mxCell id="XuE36sU5VSqXOPEqBiMG-0" value="PagingDataAdapter&lt;T, VH&gt;  : RecyclerView.Adapter&lt;VH&gt;" style="swimlane;fontStyle=1;align=center;verticalAlign=top;childLayout=stackLayout;horizontal=1;startSize=26;horizontalStack=0;resizeParent=1;resizeLast=0;collapsible=1;marginBottom=0;rounded=0;shadow=0;strokeWidth=1;fontSize=16;" parent="WIyWlLk6GJQsqaUBKTNV-1" vertex="1">
          <mxGeometry x="-1160" y="500" width="630" height="294" as="geometry">
            <mxRectangle x="130" y="380" width="160" height="26" as="alternateBounds" />
          </mxGeometry>
        </mxCell>
        <mxCell id="XuE36sU5VSqXOPEqBiMG-1" value="- differ: AsyncPagingDataDiffer" style="text;align=left;verticalAlign=top;spacingLeft=4;spacingRight=4;overflow=hidden;rotatable=0;points=[[0,0.5],[1,0.5]];portConstraint=eastwest;fontSize=16;" parent="XuE36sU5VSqXOPEqBiMG-0" vertex="1">
          <mxGeometry y="26" width="630" height="26" as="geometry" />
        </mxCell>
        <mxCell id="XuE36sU5VSqXOPEqBiMG-2" value="+ loadStateFlow: Flow&lt;CombinedLoadStates&gt;" style="text;align=left;verticalAlign=top;spacingLeft=4;spacingRight=4;overflow=hidden;rotatable=0;points=[[0,0.5],[1,0.5]];portConstraint=eastwest;rounded=0;shadow=0;html=0;fontSize=16;" parent="XuE36sU5VSqXOPEqBiMG-0" vertex="1">
          <mxGeometry y="52" width="630" height="28" as="geometry" />
        </mxCell>
        <mxCell id="XuE36sU5VSqXOPEqBiMG-5" value="" style="line;html=1;strokeWidth=1;align=left;verticalAlign=middle;spacingTop=-1;spacingLeft=3;spacingRight=3;rotatable=0;labelPosition=right;points=[];portConstraint=eastwest;fontSize=16;" parent="XuE36sU5VSqXOPEqBiMG-0" vertex="1">
          <mxGeometry y="80" width="630" height="8" as="geometry" />
        </mxCell>
        <mxCell id="XuE36sU5VSqXOPEqBiMG-6" value="+ submitData(pagingData: PagingData&lt;T&gt;)" style="text;align=left;verticalAlign=top;spacingLeft=4;spacingRight=4;overflow=hidden;rotatable=0;points=[[0,0.5],[1,0.5]];portConstraint=eastwest;fontStyle=4;fontSize=16;" parent="XuE36sU5VSqXOPEqBiMG-0" vertex="1">
          <mxGeometry y="88" width="630" height="24" as="geometry" />
        </mxCell>
        <mxCell id="XuE36sU5VSqXOPEqBiMG-7" value="+ getItem( index: Int): T?" style="text;align=left;verticalAlign=top;spacingLeft=4;spacingRight=4;overflow=hidden;rotatable=0;points=[[0,0.5],[1,0.5]];portConstraint=eastwest;fontStyle=4;fontSize=16;" parent="XuE36sU5VSqXOPEqBiMG-0" vertex="1">
          <mxGeometry y="112" width="630" height="24" as="geometry" />
        </mxCell>
        <mxCell id="XuE36sU5VSqXOPEqBiMG-28" value="+ retry()" style="text;align=left;verticalAlign=top;spacingLeft=4;spacingRight=4;overflow=hidden;rotatable=0;points=[[0,0.5],[1,0.5]];portConstraint=eastwest;fontStyle=4;fontSize=16;" parent="XuE36sU5VSqXOPEqBiMG-0" vertex="1">
          <mxGeometry y="136" width="630" height="24" as="geometry" />
        </mxCell>
        <mxCell id="XuE36sU5VSqXOPEqBiMG-8" value="+ refresh()" style="text;align=left;verticalAlign=top;spacingLeft=4;spacingRight=4;overflow=hidden;rotatable=0;points=[[0,0.5],[1,0.5]];portConstraint=eastwest;fontStyle=4;fontSize=16;" parent="XuE36sU5VSqXOPEqBiMG-0" vertex="1">
          <mxGeometry y="160" width="630" height="24" as="geometry" />
        </mxCell>
        <mxCell id="XuE36sU5VSqXOPEqBiMG-9" value="+ withLoadStateHeader(header: LoadStateAdapter&lt;*&gt;): ConcatAdapter" style="text;align=left;verticalAlign=top;spacingLeft=4;spacingRight=4;overflow=hidden;rotatable=0;points=[[0,0.5],[1,0.5]];portConstraint=eastwest;fontStyle=4;fontSize=16;" parent="XuE36sU5VSqXOPEqBiMG-0" vertex="1">
          <mxGeometry y="184" width="630" height="24" as="geometry" />
        </mxCell>
        <mxCell id="XuE36sU5VSqXOPEqBiMG-10" value="+ withLoadStateFooter(footer: LoadStateAdapter&lt;*&gt;): ConcatAdapter" style="text;align=left;verticalAlign=top;spacingLeft=4;spacingRight=4;overflow=hidden;rotatable=0;points=[[0,0.5],[1,0.5]];portConstraint=eastwest;fontStyle=4;fontSize=16;" parent="XuE36sU5VSqXOPEqBiMG-0" vertex="1">
          <mxGeometry y="208" width="630" height="24" as="geometry" />
        </mxCell>
        <mxCell id="XuE36sU5VSqXOPEqBiMG-11" value="+ fun snapshot(): ItemSnapshotList&lt;T&gt;" style="text;align=left;verticalAlign=top;spacingLeft=4;spacingRight=4;overflow=hidden;rotatable=0;points=[[0,0.5],[1,0.5]];portConstraint=eastwest;fontStyle=4;fontSize=16;" parent="XuE36sU5VSqXOPEqBiMG-0" vertex="1">
          <mxGeometry y="232" width="630" height="24" as="geometry" />
        </mxCell>
        <mxCell id="XuE36sU5VSqXOPEqBiMG-12" style="edgeStyle=orthogonalEdgeStyle;rounded=0;orthogonalLoop=1;jettySize=auto;html=1;exitX=1;exitY=0.5;exitDx=0;exitDy=0;fontSize=16;" parent="XuE36sU5VSqXOPEqBiMG-0" source="XuE36sU5VSqXOPEqBiMG-9" target="XuE36sU5VSqXOPEqBiMG-9" edge="1">
          <mxGeometry relative="1" as="geometry" />
        </mxCell>
        <mxCell id="XuE36sU5VSqXOPEqBiMG-13" value="PagingData&lt;T&gt;" style="swimlane;fontStyle=1;align=center;verticalAlign=top;childLayout=stackLayout;horizontal=1;startSize=30;horizontalStack=0;resizeParent=1;resizeLast=0;collapsible=1;marginBottom=0;rounded=0;shadow=0;strokeWidth=1;fontSize=16;" parent="WIyWlLk6GJQsqaUBKTNV-1" vertex="1">
          <mxGeometry x="-900" y="860" width="310" height="163" as="geometry">
            <mxRectangle x="130" y="380" width="160" height="26" as="alternateBounds" />
          </mxGeometry>
        </mxCell>
        <mxCell id="XuE36sU5VSqXOPEqBiMG-14" value="flow: Flow&lt;PageEvent&lt;T&gt;&gt;" style="text;align=left;verticalAlign=top;spacingLeft=4;spacingRight=4;overflow=hidden;rotatable=0;points=[[0,0.5],[1,0.5]];portConstraint=eastwest;fontSize=16;" parent="XuE36sU5VSqXOPEqBiMG-13" vertex="1">
          <mxGeometry y="30" width="310" height="26" as="geometry" />
        </mxCell>
        <mxCell id="XuE36sU5VSqXOPEqBiMG-15" value="receiver: UiReceiver" style="text;align=left;verticalAlign=top;spacingLeft=4;spacingRight=4;overflow=hidden;rotatable=0;points=[[0,0.5],[1,0.5]];portConstraint=eastwest;rounded=0;shadow=0;html=0;fontSize=16;" parent="XuE36sU5VSqXOPEqBiMG-13" vertex="1">
          <mxGeometry y="56" width="310" height="26" as="geometry" />
        </mxCell>
        <mxCell id="XuE36sU5VSqXOPEqBiMG-16" value="" style="line;html=1;strokeWidth=1;align=left;verticalAlign=middle;spacingTop=-1;spacingLeft=3;spacingRight=3;rotatable=0;labelPosition=right;points=[];portConstraint=eastwest;fontSize=16;" parent="XuE36sU5VSqXOPEqBiMG-13" vertex="1">
          <mxGeometry y="82" width="310" height="8" as="geometry" />
        </mxCell>
        <mxCell id="Q4K7SWR1rUnJMmkpEi8M-0" value="&lt;span style=&quot;color: rgb(0, 0, 0); font-family: helvetica; font-size: 16px; font-style: normal; font-weight: 400; letter-spacing: normal; text-align: left; text-indent: 0px; text-transform: none; word-spacing: 0px; background-color: rgb(248, 249, 250); display: inline; float: none;&quot;&gt;+ map(transform:(T)-&amp;gt;R): PagingData&amp;lt;R&amp;gt;&lt;/span&gt;" style="text;whiteSpace=wrap;html=1;" vertex="1" parent="XuE36sU5VSqXOPEqBiMG-13">
          <mxGeometry y="90" width="310" height="30" as="geometry" />
        </mxCell>
        <mxCell id="ubvXgTzYV1vVZ8Mo8wRW-0" value="Pager&lt;Key : Any, Value : Any&gt;" style="swimlane;fontStyle=1;align=center;verticalAlign=top;childLayout=stackLayout;horizontal=1;startSize=30;horizontalStack=0;resizeParent=1;resizeLast=0;collapsible=1;marginBottom=0;rounded=0;shadow=0;strokeWidth=1;fontSize=16;" parent="WIyWlLk6GJQsqaUBKTNV-1" vertex="1">
          <mxGeometry x="-880" y="1100" width="260" height="130" as="geometry">
            <mxRectangle x="130" y="380" width="160" height="26" as="alternateBounds" />
          </mxGeometry>
        </mxCell>
        <mxCell id="ubvXgTzYV1vVZ8Mo8wRW-1" value="+ flow: Flow&lt;PagingData&lt;Value&gt;&gt;" style="text;align=left;verticalAlign=top;spacingLeft=4;spacingRight=4;overflow=hidden;rotatable=0;points=[[0,0.5],[1,0.5]];portConstraint=eastwest;fontSize=16;" parent="ubvXgTzYV1vVZ8Mo8wRW-0" vertex="1">
          <mxGeometry y="30" width="260" height="26" as="geometry" />
        </mxCell>
        <mxCell id="ubvXgTzYV1vVZ8Mo8wRW-3" value="" style="line;html=1;strokeWidth=1;align=left;verticalAlign=middle;spacingTop=-1;spacingLeft=3;spacingRight=3;rotatable=0;labelPosition=right;points=[];portConstraint=eastwest;fontSize=16;" parent="ubvXgTzYV1vVZ8Mo8wRW-0" vertex="1">
          <mxGeometry y="56" width="260" height="8" as="geometry" />
        </mxCell>
        <mxCell id="ubvXgTzYV1vVZ8Mo8wRW-16" value="PagingSource&lt;Key, Value&gt;&#xa;{abstract}" style="swimlane;fontStyle=1;align=center;verticalAlign=top;childLayout=stackLayout;horizontal=1;startSize=50;horizontalStack=0;resizeParent=1;resizeLast=0;collapsible=1;marginBottom=0;rounded=0;shadow=0;strokeWidth=1;fontSize=16;" parent="WIyWlLk6GJQsqaUBKTNV-1" vertex="1">
          <mxGeometry x="-1280" y="1070" width="300" height="120" as="geometry">
            <mxRectangle x="130" y="380" width="160" height="26" as="alternateBounds" />
          </mxGeometry>
        </mxCell>
        <mxCell id="ubvXgTzYV1vVZ8Mo8wRW-18" value="" style="line;html=1;strokeWidth=1;align=left;verticalAlign=middle;spacingTop=-1;spacingLeft=3;spacingRight=3;rotatable=0;labelPosition=right;points=[];portConstraint=eastwest;fontSize=16;" parent="ubvXgTzYV1vVZ8Mo8wRW-16" vertex="1">
          <mxGeometry y="50" width="300" height="8" as="geometry" />
        </mxCell>
        <mxCell id="ubvXgTzYV1vVZ8Mo8wRW-19" value="# load(params: LoadParams&lt;Key&gt;):&#xa; LoadResult&lt;Key, Value&gt;" style="text;align=left;verticalAlign=top;spacingLeft=4;spacingRight=4;overflow=hidden;rotatable=0;points=[[0,0.5],[1,0.5]];portConstraint=eastwest;fontSize=16;" parent="ubvXgTzYV1vVZ8Mo8wRW-16" vertex="1">
          <mxGeometry y="58" width="300" height="46" as="geometry" />
        </mxCell>
        <mxCell id="ubvXgTzYV1vVZ8Mo8wRW-24" value="" style="html=1;verticalAlign=bottom;endArrow=open;dashed=1;endSize=8;exitX=0.5;exitY=1;exitDx=0;exitDy=0;entryX=0.5;entryY=0;entryDx=0;entryDy=0;fontSize=16;" parent="WIyWlLk6GJQsqaUBKTNV-1" source="XuE36sU5VSqXOPEqBiMG-0" target="XuE36sU5VSqXOPEqBiMG-13" edge="1">
          <mxGeometry y="-60" relative="1" as="geometry">
            <mxPoint x="-630" y="640" as="sourcePoint" />
            <mxPoint x="-630" y="680" as="targetPoint" />
            <mxPoint as="offset" />
          </mxGeometry>
        </mxCell>
        <mxCell id="ubvXgTzYV1vVZ8Mo8wRW-25" value="" style="html=1;verticalAlign=bottom;endArrow=open;dashed=1;endSize=8;entryX=1;entryY=0.417;entryDx=0;entryDy=0;entryPerimeter=0;fontSize=16;" parent="WIyWlLk6GJQsqaUBKTNV-1" target="ubvXgTzYV1vVZ8Mo8wRW-16" edge="1">
          <mxGeometry y="-60" relative="1" as="geometry">
            <mxPoint x="-880" y="1150" as="sourcePoint" />
            <mxPoint x="-960" y="1150" as="targetPoint" />
            <mxPoint as="offset" />
          </mxGeometry>
        </mxCell>
        <mxCell id="ubvXgTzYV1vVZ8Mo8wRW-29" value="RemoteMediator&lt;Key, Value&gt;&#xa;{abstract}" style="swimlane;fontStyle=1;align=center;verticalAlign=top;childLayout=stackLayout;horizontal=1;startSize=50;horizontalStack=0;resizeParent=1;resizeLast=0;collapsible=1;marginBottom=0;rounded=0;shadow=0;strokeWidth=1;fontSize=16;" parent="WIyWlLk6GJQsqaUBKTNV-1" vertex="1">
          <mxGeometry x="-550" y="1080" width="390" height="150" as="geometry">
            <mxRectangle x="130" y="380" width="160" height="26" as="alternateBounds" />
          </mxGeometry>
        </mxCell>
        <mxCell id="ubvXgTzYV1vVZ8Mo8wRW-30" value="" style="line;html=1;strokeWidth=1;align=left;verticalAlign=middle;spacingTop=-1;spacingLeft=3;spacingRight=3;rotatable=0;labelPosition=right;points=[];portConstraint=eastwest;fontSize=16;" parent="ubvXgTzYV1vVZ8Mo8wRW-29" vertex="1">
          <mxGeometry y="50" width="390" height="8" as="geometry" />
        </mxCell>
        <mxCell id="ubvXgTzYV1vVZ8Mo8wRW-31" value="# load(loadType: LoadType, state: PagingState&lt;Key, Value&gt;):&#xa; MediatorResult" style="text;align=left;verticalAlign=top;spacingLeft=4;spacingRight=4;overflow=hidden;rotatable=0;points=[[0,0.5],[1,0.5]];portConstraint=eastwest;fontSize=16;" parent="ubvXgTzYV1vVZ8Mo8wRW-29" vertex="1">
          <mxGeometry y="58" width="390" height="46" as="geometry" />
        </mxCell>
        <mxCell id="ubvXgTzYV1vVZ8Mo8wRW-32" value="# initialize(): InitializeAction" style="text;align=left;verticalAlign=top;spacingLeft=4;spacingRight=4;overflow=hidden;rotatable=0;points=[[0,0.5],[1,0.5]];portConstraint=eastwest;fontSize=16;" parent="ubvXgTzYV1vVZ8Mo8wRW-29" vertex="1">
          <mxGeometry y="104" width="390" height="46" as="geometry" />
        </mxCell>
        <mxCell id="ubvXgTzYV1vVZ8Mo8wRW-35" value="" style="html=1;verticalAlign=bottom;endArrow=open;dashed=1;endSize=8;exitX=1;exitY=0.5;exitDx=0;exitDy=0;entryX=0;entryY=0.5;entryDx=0;entryDy=0;fontSize=16;" parent="WIyWlLk6GJQsqaUBKTNV-1" source="ubvXgTzYV1vVZ8Mo8wRW-0" target="ubvXgTzYV1vVZ8Mo8wRW-31" edge="1">
          <mxGeometry y="-60" relative="1" as="geometry">
            <mxPoint x="-880" y="1190" as="sourcePoint" />
            <mxPoint x="-552" y="1165" as="targetPoint" />
            <mxPoint as="offset" />
          </mxGeometry>
        </mxCell>
        <mxCell id="ubvXgTzYV1vVZ8Mo8wRW-57" value="" style="endArrow=classic;html=1;exitX=0.527;exitY=-0.023;exitDx=0;exitDy=0;entryX=0.5;entryY=1;entryDx=0;entryDy=0;exitPerimeter=0;fontSize=16;" parent="WIyWlLk6GJQsqaUBKTNV-1" source="ubvXgTzYV1vVZ8Mo8wRW-0" target="XuE36sU5VSqXOPEqBiMG-13" edge="1">
          <mxGeometry relative="1" as="geometry">
            <mxPoint x="-1100" y="340" as="sourcePoint" />
            <mxPoint x="-940" y="340" as="targetPoint" />
          </mxGeometry>
        </mxCell>
        <mxCell id="ubvXgTzYV1vVZ8Mo8wRW-58" value="创建" style="edgeLabel;resizable=0;html=1;align=center;verticalAlign=middle;fontSize=16;" parent="ubvXgTzYV1vVZ8Mo8wRW-57" connectable="0" vertex="1">
          <mxGeometry relative="1" as="geometry" />
        </mxCell>
        <mxCell id="ubvXgTzYV1vVZ8Mo8wRW-62" value="PagingConfig" style="swimlane;fontStyle=1;align=center;verticalAlign=top;childLayout=stackLayout;horizontal=1;startSize=30;horizontalStack=0;resizeParent=1;resizeLast=0;collapsible=1;marginBottom=0;rounded=0;shadow=0;strokeWidth=1;fontSize=16;" parent="WIyWlLk6GJQsqaUBKTNV-1" vertex="1">
          <mxGeometry x="-1220" y="840" width="240" height="186" as="geometry">
            <mxRectangle x="130" y="380" width="160" height="26" as="alternateBounds" />
          </mxGeometry>
        </mxCell>
        <mxCell id="ubvXgTzYV1vVZ8Mo8wRW-63" value="pageSize: Int" style="text;align=left;verticalAlign=top;spacingLeft=4;spacingRight=4;overflow=hidden;rotatable=0;points=[[0,0.5],[1,0.5]];portConstraint=eastwest;fontSize=16;" parent="ubvXgTzYV1vVZ8Mo8wRW-62" vertex="1">
          <mxGeometry y="30" width="240" height="26" as="geometry" />
        </mxCell>
        <mxCell id="ubvXgTzYV1vVZ8Mo8wRW-64" value="prefetchDistance: Int" style="text;align=left;verticalAlign=top;spacingLeft=4;spacingRight=4;overflow=hidden;rotatable=0;points=[[0,0.5],[1,0.5]];portConstraint=eastwest;rounded=0;shadow=0;html=0;fontSize=16;" parent="ubvXgTzYV1vVZ8Mo8wRW-62" vertex="1">
          <mxGeometry y="56" width="240" height="26" as="geometry" />
        </mxCell>
        <mxCell id="ubvXgTzYV1vVZ8Mo8wRW-66" value="enablePlaceholders: Boolean" style="text;align=left;verticalAlign=top;spacingLeft=4;spacingRight=4;overflow=hidden;rotatable=0;points=[[0,0.5],[1,0.5]];portConstraint=eastwest;rounded=0;shadow=0;html=0;fontSize=16;" parent="ubvXgTzYV1vVZ8Mo8wRW-62" vertex="1">
          <mxGeometry y="82" width="240" height="26" as="geometry" />
        </mxCell>
        <mxCell id="ubvXgTzYV1vVZ8Mo8wRW-67" value="initialLoadSize: Int" style="text;align=left;verticalAlign=top;spacingLeft=4;spacingRight=4;overflow=hidden;rotatable=0;points=[[0,0.5],[1,0.5]];portConstraint=eastwest;rounded=0;shadow=0;html=0;fontSize=16;" parent="ubvXgTzYV1vVZ8Mo8wRW-62" vertex="1">
          <mxGeometry y="108" width="240" height="26" as="geometry" />
        </mxCell>
        <mxCell id="ubvXgTzYV1vVZ8Mo8wRW-69" value="maxSize: Int" style="text;align=left;verticalAlign=top;spacingLeft=4;spacingRight=4;overflow=hidden;rotatable=0;points=[[0,0.5],[1,0.5]];portConstraint=eastwest;rounded=0;shadow=0;html=0;fontSize=16;" parent="ubvXgTzYV1vVZ8Mo8wRW-62" vertex="1">
          <mxGeometry y="134" width="240" height="26" as="geometry" />
        </mxCell>
        <mxCell id="ubvXgTzYV1vVZ8Mo8wRW-76" value="jumpThreshold: Int" style="text;align=left;verticalAlign=top;spacingLeft=4;spacingRight=4;overflow=hidden;rotatable=0;points=[[0,0.5],[1,0.5]];portConstraint=eastwest;rounded=0;shadow=0;html=0;fontSize=16;" parent="ubvXgTzYV1vVZ8Mo8wRW-62" vertex="1">
          <mxGeometry y="160" width="240" height="26" as="geometry" />
        </mxCell>
        <mxCell id="ubvXgTzYV1vVZ8Mo8wRW-80" value="" style="html=1;verticalAlign=bottom;endArrow=open;dashed=1;endSize=8;exitX=-0.015;exitY=0.115;exitDx=0;exitDy=0;exitPerimeter=0;entryX=1.005;entryY=-0.115;entryDx=0;entryDy=0;entryPerimeter=0;fontSize=16;" parent="WIyWlLk6GJQsqaUBKTNV-1" source="ubvXgTzYV1vVZ8Mo8wRW-1" target="ubvXgTzYV1vVZ8Mo8wRW-67" edge="1">
          <mxGeometry y="-50" relative="1" as="geometry">
            <mxPoint x="-910" y="1020" as="sourcePoint" />
            <mxPoint x="-990" y="1020" as="targetPoint" />
            <mxPoint as="offset" />
          </mxGeometry>
        </mxCell>
        <mxCell id="ubvXgTzYV1vVZ8Mo8wRW-95" value="LoadParams&lt;Key&gt;" style="swimlane;fontStyle=1;align=center;verticalAlign=top;childLayout=stackLayout;horizontal=1;startSize=30;horizontalStack=0;resizeParent=1;resizeLast=0;collapsible=1;marginBottom=0;rounded=0;shadow=0;strokeWidth=1;fontSize=16;" parent="WIyWlLk6GJQsqaUBKTNV-1" vertex="1">
          <mxGeometry x="-1590" y="1080" width="210" height="120" as="geometry">
            <mxRectangle x="130" y="380" width="160" height="26" as="alternateBounds" />
          </mxGeometry>
        </mxCell>
        <mxCell id="ubvXgTzYV1vVZ8Mo8wRW-96" value="+ loadSize: Int" style="text;align=left;verticalAlign=top;spacingLeft=4;spacingRight=4;overflow=hidden;rotatable=0;points=[[0,0.5],[1,0.5]];portConstraint=eastwest;fontSize=16;" parent="ubvXgTzYV1vVZ8Mo8wRW-95" vertex="1">
          <mxGeometry y="30" width="210" height="26" as="geometry" />
        </mxCell>
        <mxCell id="ubvXgTzYV1vVZ8Mo8wRW-97" value="+ placeholdersEnabled: Boolean" style="text;align=left;verticalAlign=top;spacingLeft=4;spacingRight=4;overflow=hidden;rotatable=0;points=[[0,0.5],[1,0.5]];portConstraint=eastwest;rounded=0;shadow=0;html=0;fontSize=16;" parent="ubvXgTzYV1vVZ8Mo8wRW-95" vertex="1">
          <mxGeometry y="56" width="210" height="26" as="geometry" />
        </mxCell>
        <mxCell id="ubvXgTzYV1vVZ8Mo8wRW-102" value="+ key: Key?" style="text;align=left;verticalAlign=top;spacingLeft=4;spacingRight=4;overflow=hidden;rotatable=0;points=[[0,0.5],[1,0.5]];portConstraint=eastwest;rounded=0;shadow=0;html=0;fontSize=16;" parent="ubvXgTzYV1vVZ8Mo8wRW-95" vertex="1">
          <mxGeometry y="82" width="210" height="26" as="geometry" />
        </mxCell>
        <mxCell id="ubvXgTzYV1vVZ8Mo8wRW-98" value="" style="line;html=1;strokeWidth=1;align=left;verticalAlign=middle;spacingTop=-1;spacingLeft=3;spacingRight=3;rotatable=0;labelPosition=right;points=[];portConstraint=eastwest;fontSize=16;" parent="ubvXgTzYV1vVZ8Mo8wRW-95" vertex="1">
          <mxGeometry y="108" width="210" height="8" as="geometry" />
        </mxCell>
        <mxCell id="ubvXgTzYV1vVZ8Mo8wRW-101" value="" style="html=1;verticalAlign=bottom;endArrow=open;dashed=1;endSize=8;exitX=0;exitY=0.5;exitDx=0;exitDy=0;entryX=1;entryY=0.5;entryDx=0;entryDy=0;fontSize=16;" parent="WIyWlLk6GJQsqaUBKTNV-1" source="ubvXgTzYV1vVZ8Mo8wRW-19" target="ubvXgTzYV1vVZ8Mo8wRW-97" edge="1">
          <mxGeometry relative="1" as="geometry">
            <mxPoint x="-1330" y="1270" as="sourcePoint" />
            <mxPoint x="-1410" y="1270" as="targetPoint" />
          </mxGeometry>
        </mxCell>
        <mxCell id="ubvXgTzYV1vVZ8Mo8wRW-105" value="&lt;b style=&quot;font-size: 16px;&quot;&gt;&lt;font style=&quot;font-size: 16px;&quot;&gt;Refresh&amp;lt;Key&amp;gt;&lt;/font&gt;&lt;/b&gt;" style="html=1;fontSize=16;" parent="WIyWlLk6GJQsqaUBKTNV-1" vertex="1">
          <mxGeometry x="-1690" y="1280" width="120" height="50" as="geometry" />
        </mxCell>
        <mxCell id="ubvXgTzYV1vVZ8Mo8wRW-106" value="&lt;b style=&quot;font-size: 16px;&quot;&gt;&lt;font style=&quot;font-size: 16px;&quot;&gt;Append&amp;lt;Key&amp;gt;&lt;/font&gt;&lt;/b&gt;" style="html=1;fontSize=16;" parent="WIyWlLk6GJQsqaUBKTNV-1" vertex="1">
          <mxGeometry x="-1550" y="1280" width="120" height="50" as="geometry" />
        </mxCell>
        <mxCell id="ubvXgTzYV1vVZ8Mo8wRW-107" value="&lt;b style=&quot;font-size: 16px;&quot;&gt;&lt;font style=&quot;font-size: 16px;&quot;&gt;Prepend&amp;lt;Key&amp;gt;&lt;/font&gt;&lt;/b&gt;" style="html=1;fontSize=16;" parent="WIyWlLk6GJQsqaUBKTNV-1" vertex="1">
          <mxGeometry x="-1420" y="1280" width="120" height="50" as="geometry" />
        </mxCell>
        <mxCell id="ubvXgTzYV1vVZ8Mo8wRW-113" value="LoadResult&lt;Key, Value&gt;" style="swimlane;fontStyle=1;align=center;verticalAlign=top;childLayout=stackLayout;horizontal=1;startSize=30;horizontalStack=0;resizeParent=1;resizeLast=0;collapsible=1;marginBottom=0;rounded=0;shadow=0;strokeWidth=1;fontSize=16;" parent="WIyWlLk6GJQsqaUBKTNV-1" vertex="1">
          <mxGeometry x="-1240" y="1260" width="210" height="120" as="geometry">
            <mxRectangle x="130" y="380" width="160" height="26" as="alternateBounds" />
          </mxGeometry>
        </mxCell>
        <mxCell id="ubvXgTzYV1vVZ8Mo8wRW-114" value="+ loadSize: Int" style="text;align=left;verticalAlign=top;spacingLeft=4;spacingRight=4;overflow=hidden;rotatable=0;points=[[0,0.5],[1,0.5]];portConstraint=eastwest;fontSize=16;" parent="ubvXgTzYV1vVZ8Mo8wRW-113" vertex="1">
          <mxGeometry y="30" width="210" height="26" as="geometry" />
        </mxCell>
        <mxCell id="ubvXgTzYV1vVZ8Mo8wRW-115" value="+ placeholdersEnabled: Boolean" style="text;align=left;verticalAlign=top;spacingLeft=4;spacingRight=4;overflow=hidden;rotatable=0;points=[[0,0.5],[1,0.5]];portConstraint=eastwest;rounded=0;shadow=0;html=0;fontSize=16;" parent="ubvXgTzYV1vVZ8Mo8wRW-113" vertex="1">
          <mxGeometry y="56" width="210" height="26" as="geometry" />
        </mxCell>
        <mxCell id="ubvXgTzYV1vVZ8Mo8wRW-116" value="+ key: Key?" style="text;align=left;verticalAlign=top;spacingLeft=4;spacingRight=4;overflow=hidden;rotatable=0;points=[[0,0.5],[1,0.5]];portConstraint=eastwest;rounded=0;shadow=0;html=0;fontSize=16;" parent="ubvXgTzYV1vVZ8Mo8wRW-113" vertex="1">
          <mxGeometry y="82" width="210" height="26" as="geometry" />
        </mxCell>
        <mxCell id="ubvXgTzYV1vVZ8Mo8wRW-117" value="" style="line;html=1;strokeWidth=1;align=left;verticalAlign=middle;spacingTop=-1;spacingLeft=3;spacingRight=3;rotatable=0;labelPosition=right;points=[];portConstraint=eastwest;fontSize=16;" parent="ubvXgTzYV1vVZ8Mo8wRW-113" vertex="1">
          <mxGeometry y="108" width="210" height="8" as="geometry" />
        </mxCell>
        <mxCell id="ubvXgTzYV1vVZ8Mo8wRW-118" value="" style="endArrow=block;endSize=10;endFill=0;shadow=0;strokeWidth=1;rounded=0;edgeStyle=elbowEdgeStyle;elbow=vertical;entryX=0.5;entryY=1;entryDx=0;entryDy=0;exitX=0.5;exitY=0;exitDx=0;exitDy=0;fontSize=16;" parent="WIyWlLk6GJQsqaUBKTNV-1" source="ubvXgTzYV1vVZ8Mo8wRW-105" target="ubvXgTzYV1vVZ8Mo8wRW-95" edge="1">
          <mxGeometry width="160" relative="1" as="geometry">
            <mxPoint x="-1640" y="1370" as="sourcePoint" />
            <mxPoint x="-1530" y="1270" as="targetPoint" />
          </mxGeometry>
        </mxCell>
        <mxCell id="ubvXgTzYV1vVZ8Mo8wRW-119" value="" style="endArrow=block;endSize=10;endFill=0;shadow=0;strokeWidth=1;rounded=0;edgeStyle=elbowEdgeStyle;elbow=vertical;entryX=0.5;entryY=1;entryDx=0;entryDy=0;exitX=0.5;exitY=0;exitDx=0;exitDy=0;fontSize=16;" parent="WIyWlLk6GJQsqaUBKTNV-1" source="ubvXgTzYV1vVZ8Mo8wRW-107" target="ubvXgTzYV1vVZ8Mo8wRW-95" edge="1">
          <mxGeometry width="160" relative="1" as="geometry">
            <mxPoint x="-1380" y="1372" as="sourcePoint" />
            <mxPoint x="-1490" y="1270" as="targetPoint" />
          </mxGeometry>
        </mxCell>
        <mxCell id="ubvXgTzYV1vVZ8Mo8wRW-120" value="" style="endArrow=block;endSize=10;endFill=0;shadow=0;strokeWidth=1;rounded=0;edgeStyle=elbowEdgeStyle;elbow=vertical;entryX=0.5;entryY=1;entryDx=0;entryDy=0;fontSize=16;" parent="WIyWlLk6GJQsqaUBKTNV-1" source="ubvXgTzYV1vVZ8Mo8wRW-106" target="ubvXgTzYV1vVZ8Mo8wRW-95" edge="1">
          <mxGeometry width="160" relative="1" as="geometry">
            <mxPoint x="-1090" y="1372" as="sourcePoint" />
            <mxPoint x="-990" y="1270" as="targetPoint" />
          </mxGeometry>
        </mxCell>
        <mxCell id="ubvXgTzYV1vVZ8Mo8wRW-126" value="" style="endArrow=block;endSize=10;endFill=0;shadow=0;strokeWidth=1;rounded=0;edgeStyle=elbowEdgeStyle;elbow=vertical;entryX=0.5;entryY=1;entryDx=0;entryDy=0;fontSize=16;" parent="WIyWlLk6GJQsqaUBKTNV-1" source="ubvXgTzYV1vVZ8Mo8wRW-134" target="ubvXgTzYV1vVZ8Mo8wRW-113" edge="1">
          <mxGeometry width="160" relative="1" as="geometry">
            <mxPoint x="-1220" y="1520" as="sourcePoint" />
            <mxPoint x="-1135" y="1423" as="targetPoint" />
          </mxGeometry>
        </mxCell>
        <mxCell id="ubvXgTzYV1vVZ8Mo8wRW-127" value="" style="endArrow=block;endSize=10;endFill=0;shadow=0;strokeWidth=1;rounded=0;edgeStyle=elbowEdgeStyle;elbow=vertical;entryX=0.5;entryY=1;entryDx=0;entryDy=0;exitX=0.5;exitY=0;exitDx=0;exitDy=0;fontSize=16;" parent="WIyWlLk6GJQsqaUBKTNV-1" source="ubvXgTzYV1vVZ8Mo8wRW-140" target="ubvXgTzYV1vVZ8Mo8wRW-113" edge="1">
          <mxGeometry width="160" relative="1" as="geometry">
            <mxPoint x="-1060" y="1520" as="sourcePoint" />
            <mxPoint x="-1135" y="1423" as="targetPoint" />
          </mxGeometry>
        </mxCell>
        <mxCell id="ubvXgTzYV1vVZ8Mo8wRW-134" value="Page&lt;Key，Value&gt;" style="swimlane;fontStyle=1;align=center;verticalAlign=top;childLayout=stackLayout;horizontal=1;startSize=30;horizontalStack=0;resizeParent=1;resizeLast=0;collapsible=1;marginBottom=0;rounded=0;shadow=0;strokeWidth=1;fontSize=16;" parent="WIyWlLk6GJQsqaUBKTNV-1" vertex="1">
          <mxGeometry x="-1110" y="1450" width="150" height="120" as="geometry">
            <mxRectangle x="130" y="380" width="160" height="26" as="alternateBounds" />
          </mxGeometry>
        </mxCell>
        <mxCell id="ubvXgTzYV1vVZ8Mo8wRW-135" value="+ data: List&lt;Value&gt;" style="text;align=left;verticalAlign=top;spacingLeft=4;spacingRight=4;overflow=hidden;rotatable=0;points=[[0,0.5],[1,0.5]];portConstraint=eastwest;fontSize=16;" parent="ubvXgTzYV1vVZ8Mo8wRW-134" vertex="1">
          <mxGeometry y="30" width="150" height="26" as="geometry" />
        </mxCell>
        <mxCell id="ubvXgTzYV1vVZ8Mo8wRW-136" value="+ prevKey: Key?" style="text;align=left;verticalAlign=top;spacingLeft=4;spacingRight=4;overflow=hidden;rotatable=0;points=[[0,0.5],[1,0.5]];portConstraint=eastwest;rounded=0;shadow=0;html=0;fontSize=16;" parent="ubvXgTzYV1vVZ8Mo8wRW-134" vertex="1">
          <mxGeometry y="56" width="150" height="26" as="geometry" />
        </mxCell>
        <mxCell id="ubvXgTzYV1vVZ8Mo8wRW-138" value="+ nextKey: Key?" style="text;align=left;verticalAlign=top;spacingLeft=4;spacingRight=4;overflow=hidden;rotatable=0;points=[[0,0.5],[1,0.5]];portConstraint=eastwest;rounded=0;shadow=0;html=0;fontSize=16;" parent="ubvXgTzYV1vVZ8Mo8wRW-134" vertex="1">
          <mxGeometry y="82" width="150" height="28" as="geometry" />
        </mxCell>
        <mxCell id="ubvXgTzYV1vVZ8Mo8wRW-137" value="" style="line;html=1;strokeWidth=1;align=left;verticalAlign=middle;spacingTop=-1;spacingLeft=3;spacingRight=3;rotatable=0;labelPosition=right;points=[];portConstraint=eastwest;fontSize=16;" parent="ubvXgTzYV1vVZ8Mo8wRW-134" vertex="1">
          <mxGeometry y="110" width="150" height="8" as="geometry" />
        </mxCell>
        <mxCell id="ubvXgTzYV1vVZ8Mo8wRW-140" value="Error&lt;Key，Value&gt;" style="swimlane;fontStyle=1;align=center;verticalAlign=top;childLayout=stackLayout;horizontal=1;startSize=30;horizontalStack=0;resizeParent=1;resizeLast=0;collapsible=1;marginBottom=0;rounded=0;shadow=0;strokeWidth=1;fontSize=16;" parent="WIyWlLk6GJQsqaUBKTNV-1" vertex="1">
          <mxGeometry x="-1320" y="1450" width="150" height="100" as="geometry">
            <mxRectangle x="130" y="380" width="160" height="26" as="alternateBounds" />
          </mxGeometry>
        </mxCell>
        <mxCell id="ubvXgTzYV1vVZ8Mo8wRW-143" value="+ throwable: Throwable" style="text;align=left;verticalAlign=top;spacingLeft=4;spacingRight=4;overflow=hidden;rotatable=0;points=[[0,0.5],[1,0.5]];portConstraint=eastwest;rounded=0;shadow=0;html=0;fontSize=16;" parent="ubvXgTzYV1vVZ8Mo8wRW-140" vertex="1">
          <mxGeometry y="30" width="150" height="28" as="geometry" />
        </mxCell>
        <mxCell id="ubvXgTzYV1vVZ8Mo8wRW-144" value="" style="line;html=1;strokeWidth=1;align=left;verticalAlign=middle;spacingTop=-1;spacingLeft=3;spacingRight=3;rotatable=0;labelPosition=right;points=[];portConstraint=eastwest;fontSize=16;" parent="ubvXgTzYV1vVZ8Mo8wRW-140" vertex="1">
          <mxGeometry y="58" width="150" height="8" as="geometry" />
        </mxCell>
        <mxCell id="nEP0Bxg_CWYKs77Z_bnu-1" value="&lt;enum&gt;&#xa;LoadType" style="swimlane;fontStyle=1;align=center;verticalAlign=top;childLayout=stackLayout;horizontal=1;startSize=50;horizontalStack=0;resizeParent=1;resizeLast=0;collapsible=1;marginBottom=0;rounded=0;shadow=0;strokeWidth=1;fontSize=16;" parent="WIyWlLk6GJQsqaUBKTNV-1" vertex="1">
          <mxGeometry x="-300" y="1290" width="200" height="136" as="geometry">
            <mxRectangle x="130" y="380" width="160" height="26" as="alternateBounds" />
          </mxGeometry>
        </mxCell>
        <mxCell id="nEP0Bxg_CWYKs77Z_bnu-2" value="REFRESH" style="text;align=left;verticalAlign=top;spacingLeft=4;spacingRight=4;overflow=hidden;rotatable=0;points=[[0,0.5],[1,0.5]];portConstraint=eastwest;fontSize=16;" parent="nEP0Bxg_CWYKs77Z_bnu-1" vertex="1">
          <mxGeometry y="50" width="200" height="26" as="geometry" />
        </mxCell>
        <mxCell id="nEP0Bxg_CWYKs77Z_bnu-3" value="PREPEND" style="text;align=left;verticalAlign=top;spacingLeft=4;spacingRight=4;overflow=hidden;rotatable=0;points=[[0,0.5],[1,0.5]];portConstraint=eastwest;rounded=0;shadow=0;html=0;fontSize=16;" parent="nEP0Bxg_CWYKs77Z_bnu-1" vertex="1">
          <mxGeometry y="76" width="200" height="26" as="geometry" />
        </mxCell>
        <mxCell id="nEP0Bxg_CWYKs77Z_bnu-4" value="APPEND" style="text;align=left;verticalAlign=top;spacingLeft=4;spacingRight=4;overflow=hidden;rotatable=0;points=[[0,0.5],[1,0.5]];portConstraint=eastwest;rounded=0;shadow=0;html=0;fontSize=16;" parent="nEP0Bxg_CWYKs77Z_bnu-1" vertex="1">
          <mxGeometry y="102" width="200" height="26" as="geometry" />
        </mxCell>
        <mxCell id="nEP0Bxg_CWYKs77Z_bnu-10" value="" style="html=1;verticalAlign=bottom;endArrow=open;dashed=1;endSize=8;exitX=0.5;exitY=1;exitDx=0;exitDy=0;entryX=0.5;entryY=0;entryDx=0;entryDy=0;fontSize=16;" parent="WIyWlLk6GJQsqaUBKTNV-1" source="ubvXgTzYV1vVZ8Mo8wRW-16" target="ubvXgTzYV1vVZ8Mo8wRW-113" edge="1">
          <mxGeometry relative="1" as="geometry">
            <mxPoint x="-1000" y="1250" as="sourcePoint" />
            <mxPoint x="-1080" y="1250" as="targetPoint" />
          </mxGeometry>
        </mxCell>
        <mxCell id="nEP0Bxg_CWYKs77Z_bnu-11" value="PagingState&lt;Key, Value&gt;" style="swimlane;fontStyle=1;align=center;verticalAlign=top;childLayout=stackLayout;horizontal=1;startSize=30;horizontalStack=0;resizeParent=1;resizeLast=0;collapsible=1;marginBottom=0;rounded=0;shadow=0;strokeWidth=1;fontSize=16;" parent="WIyWlLk6GJQsqaUBKTNV-1" vertex="1">
          <mxGeometry x="-875" y="1280" width="270" height="163" as="geometry">
            <mxRectangle x="130" y="380" width="160" height="26" as="alternateBounds" />
          </mxGeometry>
        </mxCell>
        <mxCell id="nEP0Bxg_CWYKs77Z_bnu-12" value="+ pages: List&lt;Page&lt;Key, Value&gt;&gt;" style="text;align=left;verticalAlign=top;spacingLeft=4;spacingRight=4;overflow=hidden;rotatable=0;points=[[0,0.5],[1,0.5]];portConstraint=eastwest;fontSize=16;" parent="nEP0Bxg_CWYKs77Z_bnu-11" vertex="1">
          <mxGeometry y="30" width="270" height="26" as="geometry" />
        </mxCell>
        <mxCell id="nEP0Bxg_CWYKs77Z_bnu-13" value="+ anchorPosition: Int?" style="text;align=left;verticalAlign=top;spacingLeft=4;spacingRight=4;overflow=hidden;rotatable=0;points=[[0,0.5],[1,0.5]];portConstraint=eastwest;rounded=0;shadow=0;html=0;fontSize=16;" parent="nEP0Bxg_CWYKs77Z_bnu-11" vertex="1">
          <mxGeometry y="56" width="270" height="26" as="geometry" />
        </mxCell>
        <mxCell id="nEP0Bxg_CWYKs77Z_bnu-14" value="+ config: PagingConfig" style="text;align=left;verticalAlign=top;spacingLeft=4;spacingRight=4;overflow=hidden;rotatable=0;points=[[0,0.5],[1,0.5]];portConstraint=eastwest;rounded=0;shadow=0;html=0;fontSize=16;" parent="nEP0Bxg_CWYKs77Z_bnu-11" vertex="1">
          <mxGeometry y="82" width="270" height="26" as="geometry" />
        </mxCell>
        <mxCell id="nEP0Bxg_CWYKs77Z_bnu-15" value="" style="line;html=1;strokeWidth=1;align=left;verticalAlign=middle;spacingTop=-1;spacingLeft=3;spacingRight=3;rotatable=0;labelPosition=right;points=[];portConstraint=eastwest;fontSize=16;" parent="nEP0Bxg_CWYKs77Z_bnu-11" vertex="1">
          <mxGeometry y="108" width="270" height="8" as="geometry" />
        </mxCell>
        <mxCell id="nEP0Bxg_CWYKs77Z_bnu-17" value="" style="html=1;verticalAlign=bottom;endArrow=open;dashed=1;endSize=8;exitX=0;exitY=0.5;exitDx=0;exitDy=0;entryX=1;entryY=0.5;entryDx=0;entryDy=0;fontSize=16;" parent="WIyWlLk6GJQsqaUBKTNV-1" source="nEP0Bxg_CWYKs77Z_bnu-14" target="ubvXgTzYV1vVZ8Mo8wRW-136" edge="1">
          <mxGeometry relative="1" as="geometry">
            <mxPoint x="-610" y="1690" as="sourcePoint" />
            <mxPoint x="-690" y="1690" as="targetPoint" />
          </mxGeometry>
        </mxCell>
        <mxCell id="nEP0Bxg_CWYKs77Z_bnu-18" value="" style="html=1;verticalAlign=bottom;endArrow=open;dashed=1;endSize=8;exitX=0.43;exitY=1.074;exitDx=0;exitDy=0;exitPerimeter=0;entryX=0.5;entryY=0;entryDx=0;entryDy=0;fontSize=16;" parent="WIyWlLk6GJQsqaUBKTNV-1" source="ubvXgTzYV1vVZ8Mo8wRW-32" target="nEP0Bxg_CWYKs77Z_bnu-11" edge="1">
          <mxGeometry relative="1" as="geometry">
            <mxPoint x="-433" y="1270" as="sourcePoint" />
            <mxPoint x="-513" y="1270" as="targetPoint" />
          </mxGeometry>
        </mxCell>
        <mxCell id="nEP0Bxg_CWYKs77Z_bnu-19" value="" style="html=1;verticalAlign=bottom;endArrow=open;dashed=1;endSize=8;exitX=0.436;exitY=1.049;exitDx=0;exitDy=0;exitPerimeter=0;entryX=0.5;entryY=0;entryDx=0;entryDy=0;fontSize=16;" parent="WIyWlLk6GJQsqaUBKTNV-1" source="ubvXgTzYV1vVZ8Mo8wRW-32" target="nEP0Bxg_CWYKs77Z_bnu-1" edge="1">
          <mxGeometry relative="1" as="geometry">
            <mxPoint y="1370" as="sourcePoint" />
            <mxPoint x="-80" y="1370" as="targetPoint" />
          </mxGeometry>
        </mxCell>
        <mxCell id="nEP0Bxg_CWYKs77Z_bnu-26" value="" style="html=1;verticalAlign=bottom;endArrow=open;dashed=1;endSize=8;entryX=0.5;entryY=0;entryDx=0;entryDy=0;fontSize=16;" parent="WIyWlLk6GJQsqaUBKTNV-1" target="nEP0Bxg_CWYKs77Z_bnu-27" edge="1">
          <mxGeometry relative="1" as="geometry">
            <mxPoint x="-380" y="1230" as="sourcePoint" />
            <mxPoint x="-190" y="1310" as="targetPoint" />
          </mxGeometry>
        </mxCell>
        <mxCell id="nEP0Bxg_CWYKs77Z_bnu-27" value="&lt;span style=&quot;font-size: 16px; font-weight: 700;&quot;&gt;MediatorResult&lt;/span&gt;" style="html=1;fontSize=16;" parent="WIyWlLk6GJQsqaUBKTNV-1" vertex="1">
          <mxGeometry x="-520" y="1333" width="150" height="50" as="geometry" />
        </mxCell>
        <mxCell id="nEP0Bxg_CWYKs77Z_bnu-33" value="Success" style="swimlane;fontStyle=1;align=center;verticalAlign=top;childLayout=stackLayout;horizontal=1;startSize=30;horizontalStack=0;resizeParent=1;resizeLast=0;collapsible=1;marginBottom=0;rounded=0;shadow=0;strokeWidth=1;fontSize=16;" parent="WIyWlLk6GJQsqaUBKTNV-1" vertex="1">
          <mxGeometry x="-720" y="1499" width="280" height="71" as="geometry">
            <mxRectangle x="130" y="380" width="160" height="26" as="alternateBounds" />
          </mxGeometry>
        </mxCell>
        <mxCell id="nEP0Bxg_CWYKs77Z_bnu-34" value="+ endOfPaginationReached: Boolean" style="text;align=left;verticalAlign=top;spacingLeft=4;spacingRight=4;overflow=hidden;rotatable=0;points=[[0,0.5],[1,0.5]];portConstraint=eastwest;fontSize=16;" parent="nEP0Bxg_CWYKs77Z_bnu-33" vertex="1">
          <mxGeometry y="30" width="280" height="26" as="geometry" />
        </mxCell>
        <mxCell id="nEP0Bxg_CWYKs77Z_bnu-40" value="Error" style="swimlane;fontStyle=1;align=center;verticalAlign=top;childLayout=stackLayout;horizontal=1;startSize=30;horizontalStack=0;resizeParent=1;resizeLast=0;collapsible=1;marginBottom=0;rounded=0;shadow=0;strokeWidth=1;fontSize=16;" parent="WIyWlLk6GJQsqaUBKTNV-1" vertex="1">
          <mxGeometry x="-420" y="1499" width="180" height="71" as="geometry">
            <mxRectangle x="130" y="380" width="160" height="26" as="alternateBounds" />
          </mxGeometry>
        </mxCell>
        <mxCell id="nEP0Bxg_CWYKs77Z_bnu-41" value="+ throwable: Throwable" style="text;align=left;verticalAlign=top;spacingLeft=4;spacingRight=4;overflow=hidden;rotatable=0;points=[[0,0.5],[1,0.5]];portConstraint=eastwest;fontSize=16;" parent="nEP0Bxg_CWYKs77Z_bnu-40" vertex="1">
          <mxGeometry y="30" width="180" height="26" as="geometry" />
        </mxCell>
        <mxCell id="nEP0Bxg_CWYKs77Z_bnu-43" value="" style="endArrow=block;endSize=10;endFill=0;shadow=0;strokeWidth=1;rounded=0;edgeStyle=elbowEdgeStyle;elbow=vertical;entryX=0.5;entryY=1;entryDx=0;entryDy=0;exitX=0.5;exitY=0;exitDx=0;exitDy=0;fontSize=16;" parent="WIyWlLk6GJQsqaUBKTNV-1" source="nEP0Bxg_CWYKs77Z_bnu-33" target="nEP0Bxg_CWYKs77Z_bnu-27" edge="1">
          <mxGeometry width="160" relative="1" as="geometry">
            <mxPoint x="-550" y="1500" as="sourcePoint" />
            <mxPoint x="-390" y="1370" as="targetPoint" />
          </mxGeometry>
        </mxCell>
        <mxCell id="nEP0Bxg_CWYKs77Z_bnu-45" value="" style="endArrow=block;endSize=10;endFill=0;shadow=0;strokeWidth=1;rounded=0;edgeStyle=elbowEdgeStyle;elbow=vertical;entryX=0.5;entryY=1;entryDx=0;entryDy=0;exitX=0.5;exitY=0;exitDx=0;exitDy=0;fontSize=16;" parent="WIyWlLk6GJQsqaUBKTNV-1" source="nEP0Bxg_CWYKs77Z_bnu-40" target="nEP0Bxg_CWYKs77Z_bnu-27" edge="1">
          <mxGeometry width="160" relative="1" as="geometry">
            <mxPoint x="-270" y="1460" as="sourcePoint" />
            <mxPoint x="-185" y="1320" as="targetPoint" />
          </mxGeometry>
        </mxCell>
        <mxCell id="nEP0Bxg_CWYKs77Z_bnu-46" value="LoadState" style="swimlane;fontStyle=1;align=center;verticalAlign=top;childLayout=stackLayout;horizontal=1;startSize=30;horizontalStack=0;resizeParent=1;resizeLast=0;collapsible=1;marginBottom=0;rounded=0;shadow=0;strokeWidth=1;fontSize=16;" parent="WIyWlLk6GJQsqaUBKTNV-1" vertex="1">
          <mxGeometry x="-440" y="700" width="320" height="90" as="geometry">
            <mxRectangle x="130" y="380" width="160" height="26" as="alternateBounds" />
          </mxGeometry>
        </mxCell>
        <mxCell id="nEP0Bxg_CWYKs77Z_bnu-47" value="+ endOfPaginationReached: Boolean" style="text;align=left;verticalAlign=top;spacingLeft=4;spacingRight=4;overflow=hidden;rotatable=0;points=[[0,0.5],[1,0.5]];portConstraint=eastwest;fontSize=16;" parent="nEP0Bxg_CWYKs77Z_bnu-46" vertex="1">
          <mxGeometry y="30" width="320" height="60" as="geometry" />
        </mxCell>
        <mxCell id="nEP0Bxg_CWYKs77Z_bnu-53" value="CombinedLoadStates" style="swimlane;fontStyle=1;align=center;verticalAlign=top;childLayout=stackLayout;horizontal=1;startSize=30;horizontalStack=0;resizeParent=1;resizeLast=0;collapsible=1;marginBottom=0;rounded=0;shadow=0;strokeWidth=1;fontSize=16;" parent="WIyWlLk6GJQsqaUBKTNV-1" vertex="1">
          <mxGeometry x="-410" y="500" width="200" height="170" as="geometry">
            <mxRectangle x="130" y="380" width="160" height="26" as="alternateBounds" />
          </mxGeometry>
        </mxCell>
        <mxCell id="nEP0Bxg_CWYKs77Z_bnu-54" value="+ refresh: LoadState" style="text;align=left;verticalAlign=top;spacingLeft=4;spacingRight=4;overflow=hidden;rotatable=0;points=[[0,0.5],[1,0.5]];portConstraint=eastwest;fontSize=16;" parent="nEP0Bxg_CWYKs77Z_bnu-53" vertex="1">
          <mxGeometry y="30" width="200" height="26" as="geometry" />
        </mxCell>
        <mxCell id="nEP0Bxg_CWYKs77Z_bnu-55" value="+ prepend: LoadState" style="text;align=left;verticalAlign=top;spacingLeft=4;spacingRight=4;overflow=hidden;rotatable=0;points=[[0,0.5],[1,0.5]];portConstraint=eastwest;rounded=0;shadow=0;html=0;fontSize=16;" parent="nEP0Bxg_CWYKs77Z_bnu-53" vertex="1">
          <mxGeometry y="56" width="200" height="26" as="geometry" />
        </mxCell>
        <mxCell id="nEP0Bxg_CWYKs77Z_bnu-56" value="+ append: LoadState" style="text;align=left;verticalAlign=top;spacingLeft=4;spacingRight=4;overflow=hidden;rotatable=0;points=[[0,0.5],[1,0.5]];portConstraint=eastwest;rounded=0;shadow=0;html=0;fontSize=16;" parent="nEP0Bxg_CWYKs77Z_bnu-53" vertex="1">
          <mxGeometry y="82" width="200" height="26" as="geometry" />
        </mxCell>
        <mxCell id="nEP0Bxg_CWYKs77Z_bnu-57" value="+ source: LoadStates" style="text;align=left;verticalAlign=top;spacingLeft=4;spacingRight=4;overflow=hidden;rotatable=0;points=[[0,0.5],[1,0.5]];portConstraint=eastwest;rounded=0;shadow=0;html=0;fontSize=16;" parent="nEP0Bxg_CWYKs77Z_bnu-53" vertex="1">
          <mxGeometry y="108" width="200" height="26" as="geometry" />
        </mxCell>
        <mxCell id="nEP0Bxg_CWYKs77Z_bnu-58" value="+ mediator: LoadStates?" style="text;align=left;verticalAlign=top;spacingLeft=4;spacingRight=4;overflow=hidden;rotatable=0;points=[[0,0.5],[1,0.5]];portConstraint=eastwest;rounded=0;shadow=0;html=0;fontSize=16;" parent="nEP0Bxg_CWYKs77Z_bnu-53" vertex="1">
          <mxGeometry y="134" width="200" height="26" as="geometry" />
        </mxCell>
        <mxCell id="nEP0Bxg_CWYKs77Z_bnu-65" value="&lt;span style=&quot;font-size: 16px; font-weight: 700;&quot;&gt;NotLoading&lt;/span&gt;" style="html=1;fontSize=16;" parent="WIyWlLk6GJQsqaUBKTNV-1" vertex="1">
          <mxGeometry x="-510" y="870" width="110" height="50" as="geometry" />
        </mxCell>
        <mxCell id="nEP0Bxg_CWYKs77Z_bnu-67" value="Error" style="swimlane;fontStyle=1;align=center;verticalAlign=top;childLayout=stackLayout;horizontal=1;startSize=30;horizontalStack=0;resizeParent=1;resizeLast=0;collapsible=1;marginBottom=0;rounded=0;shadow=0;strokeWidth=1;fontSize=16;" parent="WIyWlLk6GJQsqaUBKTNV-1" vertex="1">
          <mxGeometry x="-250" y="870" width="170" height="71" as="geometry">
            <mxRectangle x="130" y="380" width="160" height="26" as="alternateBounds" />
          </mxGeometry>
        </mxCell>
        <mxCell id="nEP0Bxg_CWYKs77Z_bnu-68" value="+ error: Throwable" style="text;align=left;verticalAlign=top;spacingLeft=4;spacingRight=4;overflow=hidden;rotatable=0;points=[[0,0.5],[1,0.5]];portConstraint=eastwest;fontSize=16;" parent="nEP0Bxg_CWYKs77Z_bnu-67" vertex="1">
          <mxGeometry y="30" width="170" height="26" as="geometry" />
        </mxCell>
        <mxCell id="nEP0Bxg_CWYKs77Z_bnu-69" value="&lt;span style=&quot;font-size: 16px; font-weight: 700;&quot;&gt;Loading&lt;/span&gt;" style="html=1;fontSize=16;" parent="WIyWlLk6GJQsqaUBKTNV-1" vertex="1">
          <mxGeometry x="-370" y="870" width="70" height="50" as="geometry" />
        </mxCell>
        <mxCell id="nEP0Bxg_CWYKs77Z_bnu-70" value="" style="endArrow=block;endSize=10;endFill=0;shadow=0;strokeWidth=1;rounded=0;edgeStyle=elbowEdgeStyle;elbow=vertical;entryX=0.5;entryY=1;entryDx=0;entryDy=0;exitX=0.5;exitY=0;exitDx=0;exitDy=0;fontSize=16;" parent="WIyWlLk6GJQsqaUBKTNV-1" source="nEP0Bxg_CWYKs77Z_bnu-65" target="nEP0Bxg_CWYKs77Z_bnu-46" edge="1">
          <mxGeometry width="160" relative="1" as="geometry">
            <mxPoint x="-513" y="1037" as="sourcePoint" />
            <mxPoint x="-398" y="900" as="targetPoint" />
            <Array as="points">
              <mxPoint x="-470" y="840" />
              <mxPoint x="-490" y="870" />
            </Array>
          </mxGeometry>
        </mxCell>
        <mxCell id="nEP0Bxg_CWYKs77Z_bnu-72" value="" style="endArrow=block;endSize=10;endFill=0;shadow=0;strokeWidth=1;rounded=0;edgeStyle=elbowEdgeStyle;elbow=vertical;entryX=0.5;entryY=1;entryDx=0;entryDy=0;exitX=0.5;exitY=0;exitDx=0;exitDy=0;fontSize=16;" parent="WIyWlLk6GJQsqaUBKTNV-1" source="nEP0Bxg_CWYKs77Z_bnu-69" target="nEP0Bxg_CWYKs77Z_bnu-46" edge="1">
          <mxGeometry width="160" relative="1" as="geometry">
            <mxPoint x="-465" y="850" as="sourcePoint" />
            <mxPoint x="-295" y="770" as="targetPoint" />
            <Array as="points">
              <mxPoint x="-350" y="840" />
              <mxPoint x="-380" y="870" />
              <mxPoint x="-240" y="810" />
            </Array>
          </mxGeometry>
        </mxCell>
        <mxCell id="nEP0Bxg_CWYKs77Z_bnu-74" value="" style="endArrow=block;endSize=10;endFill=0;shadow=0;strokeWidth=1;rounded=0;edgeStyle=elbowEdgeStyle;elbow=vertical;entryX=0.496;entryY=1.009;entryDx=0;entryDy=0;exitX=0.5;exitY=0;exitDx=0;exitDy=0;entryPerimeter=0;fontSize=16;" parent="WIyWlLk6GJQsqaUBKTNV-1" source="nEP0Bxg_CWYKs77Z_bnu-67" target="nEP0Bxg_CWYKs77Z_bnu-47" edge="1">
          <mxGeometry width="160" relative="1" as="geometry">
            <mxPoint x="-405" y="955" as="sourcePoint" />
            <mxPoint x="-295" y="800.0000000000001" as="targetPoint" />
            <Array as="points">
              <mxPoint x="-260" y="840" />
              <mxPoint x="-210" y="870" />
              <mxPoint x="-370" y="880" />
              <mxPoint x="-230" y="820" />
            </Array>
          </mxGeometry>
        </mxCell>
        <mxCell id="nEP0Bxg_CWYKs77Z_bnu-77" value="" style="html=1;verticalAlign=bottom;endArrow=open;dashed=1;endSize=8;exitX=1;exitY=0.5;exitDx=0;exitDy=0;entryX=0.001;entryY=0.308;entryDx=0;entryDy=0;entryPerimeter=0;fontSize=16;" parent="WIyWlLk6GJQsqaUBKTNV-1" source="XuE36sU5VSqXOPEqBiMG-6" target="nEP0Bxg_CWYKs77Z_bnu-56" edge="1">
          <mxGeometry relative="1" as="geometry">
            <mxPoint x="-100" y="680" as="sourcePoint" />
            <mxPoint x="-80" y="600" as="targetPoint" />
          </mxGeometry>
        </mxCell>
        <mxCell id="nEP0Bxg_CWYKs77Z_bnu-78" value="" style="html=1;verticalAlign=bottom;endArrow=open;dashed=1;endSize=8;exitX=0.5;exitY=1;exitDx=0;exitDy=0;entryX=0.5;entryY=0;entryDx=0;entryDy=0;fontSize=16;" parent="WIyWlLk6GJQsqaUBKTNV-1" source="nEP0Bxg_CWYKs77Z_bnu-53" target="nEP0Bxg_CWYKs77Z_bnu-46" edge="1">
          <mxGeometry relative="1" as="geometry">
            <mxPoint x="110" y="580" as="sourcePoint" />
            <mxPoint x="30" y="580" as="targetPoint" />
          </mxGeometry>
        </mxCell>
        <mxCell id="JGOgkxSmVVC2P6Z6qFKT-0" value="LoadStateAdapter&lt;VH&gt;  : RecyclerView.Adapter&lt;VH&gt;" style="swimlane;fontStyle=1;align=center;verticalAlign=top;childLayout=stackLayout;horizontal=1;startSize=26;horizontalStack=0;resizeParent=1;resizeLast=0;collapsible=1;marginBottom=0;rounded=0;shadow=0;strokeWidth=1;fontSize=16;" parent="WIyWlLk6GJQsqaUBKTNV-1" vertex="1">
          <mxGeometry x="-1750" y="600" width="510" height="180" as="geometry">
            <mxRectangle x="130" y="380" width="160" height="26" as="alternateBounds" />
          </mxGeometry>
        </mxCell>
        <mxCell id="JGOgkxSmVVC2P6Z6qFKT-2" value="+ loadState: LoadState" style="text;align=left;verticalAlign=top;spacingLeft=4;spacingRight=4;overflow=hidden;rotatable=0;points=[[0,0.5],[1,0.5]];portConstraint=eastwest;rounded=0;shadow=0;html=0;fontSize=16;" parent="JGOgkxSmVVC2P6Z6qFKT-0" vertex="1">
          <mxGeometry y="26" width="510" height="28" as="geometry" />
        </mxCell>
        <mxCell id="JGOgkxSmVVC2P6Z6qFKT-3" value="" style="line;html=1;strokeWidth=1;align=left;verticalAlign=middle;spacingTop=-1;spacingLeft=3;spacingRight=3;rotatable=0;labelPosition=right;points=[];portConstraint=eastwest;fontSize=16;" parent="JGOgkxSmVVC2P6Z6qFKT-0" vertex="1">
          <mxGeometry y="54" width="510" height="8" as="geometry" />
        </mxCell>
        <mxCell id="JGOgkxSmVVC2P6Z6qFKT-4" value="# onCreateViewHolder(parent: ViewGroup, loadState: LoadState): VH" style="text;align=left;verticalAlign=top;spacingLeft=4;spacingRight=4;overflow=hidden;rotatable=0;points=[[0,0.5],[1,0.5]];portConstraint=eastwest;fontStyle=4;fontSize=16;" parent="JGOgkxSmVVC2P6Z6qFKT-0" vertex="1">
          <mxGeometry y="62" width="510" height="24" as="geometry" />
        </mxCell>
        <mxCell id="JGOgkxSmVVC2P6Z6qFKT-5" value="# onBindViewHolder(holder: VH, loadState: LoadState)" style="text;align=left;verticalAlign=top;spacingLeft=4;spacingRight=4;overflow=hidden;rotatable=0;points=[[0,0.5],[1,0.5]];portConstraint=eastwest;fontStyle=4;fontSize=16;" parent="JGOgkxSmVVC2P6Z6qFKT-0" vertex="1">
          <mxGeometry y="86" width="510" height="24" as="geometry" />
        </mxCell>
        <mxCell id="JGOgkxSmVVC2P6Z6qFKT-6" value="# getStateViewType(loadState: LoadState): Int = 0" style="text;align=left;verticalAlign=top;spacingLeft=4;spacingRight=4;overflow=hidden;rotatable=0;points=[[0,0.5],[1,0.5]];portConstraint=eastwest;fontStyle=4;fontSize=16;" parent="JGOgkxSmVVC2P6Z6qFKT-0" vertex="1">
          <mxGeometry y="110" width="510" height="24" as="geometry" />
        </mxCell>
        <mxCell id="JGOgkxSmVVC2P6Z6qFKT-7" value="# displayLoadStateAsItem(loadState: LoadState): Boolean" style="text;align=left;verticalAlign=top;spacingLeft=4;spacingRight=4;overflow=hidden;rotatable=0;points=[[0,0.5],[1,0.5]];portConstraint=eastwest;fontStyle=4;fontSize=16;" parent="JGOgkxSmVVC2P6Z6qFKT-0" vertex="1">
          <mxGeometry y="134" width="510" height="24" as="geometry" />
        </mxCell>
        <mxCell id="JGOgkxSmVVC2P6Z6qFKT-11" style="edgeStyle=orthogonalEdgeStyle;rounded=0;orthogonalLoop=1;jettySize=auto;html=1;exitX=1;exitY=0.5;exitDx=0;exitDy=0;fontSize=16;" parent="JGOgkxSmVVC2P6Z6qFKT-0" edge="1">
          <mxGeometry relative="1" as="geometry">
            <mxPoint x="630" y="170.00000000000023" as="sourcePoint" />
            <mxPoint x="630" y="170.00000000000023" as="targetPoint" />
          </mxGeometry>
        </mxCell>
        <mxCell id="JGOgkxSmVVC2P6Z6qFKT-12" value="" style="html=1;verticalAlign=bottom;endArrow=open;dashed=1;endSize=8;exitX=0;exitY=0.5;exitDx=0;exitDy=0;fontSize=16;entryX=1;entryY=0.5;entryDx=0;entryDy=0;" parent="WIyWlLk6GJQsqaUBKTNV-1" source="XuE36sU5VSqXOPEqBiMG-8" target="JGOgkxSmVVC2P6Z6qFKT-4" edge="1">
          <mxGeometry y="-60" relative="1" as="geometry">
            <mxPoint x="-845" y="794" as="sourcePoint" />
            <mxPoint x="-1480" y="810" as="targetPoint" />
            <mxPoint as="offset" />
          </mxGeometry>
        </mxCell>
      </root>
    </mxGraphModel>
  </diagram>
</mxfile>
